<svg xmlns="http://www.w3.org/2000/svg" width="48" height="48" viewBox="0 0 48 48">
  <mask id="a">
    <path fill="#fff" d="M39.007419 86.753088v95.116152h2.140953c7.993909-21.40222 52.545091-72.97797 66.749488-80.91946 17.84923-9.979262 39.79218 17.17953 28.78975 30.52379-8.111 9.83741-42.370053 36.09818-67.895447 50.39567h93.165367V86.753088z"/>
  </mask>
  <g mask="url(#a)" transform="translate(-18.41563549 -32.39056034) scale(.41718)">
    <rect width="29.649868" height="88.465126" x="85.894119" y="89.823242" fill="#1a91cf" rx="9.2809362" ry="9.2809362"/>
    <rect width="30.425028" height="62.877209" x="44.310932" y="114.56075" fill="#f7c94b" rx="9.2809362" ry="9.2809362"/>
    <rect width="30.425028" height="53.389141" x="126.78381" y="124.12404" fill="#bb1d25" rx="9.2809362" ry="9.2809362"/>
  </g>
  <path fill="#96be0f" d="M37.51065722 3.04831061c.86313384-.68833438 5.9729933-.22243126 5.92800851.9449596-.04498895 1.16739085-7.53932156 8.27128906-8.01534344 7.96909042-.47601772-.30219864 1.22420526-8.22571605 2.08733493-8.91405002z"/>
  <path fill="#eb7800" d="M.571314 44.93047634C-1.69112533 41.62460565 21.86790539 15.1970308 27.32074182 11.8430256c5.45284186-3.35400437 13.01120363 4.48912532 9.27369927 9.63822496C32.85693672 26.6303502 2.83375336 48.23634703.57131401 44.93047635z"/>
  <path fill="#96be0f" d="M36.98601689 13.56547604c-.11569721-.94673303 9.07293438-8.24967859 10.22176312-8.32991196 1.14882873-.08023295.77341457 6.92571332-.06030373 7.48006121-.8337183.5543479-10.04576635 1.79658379-10.16145939.84985075z"/>
</svg>
