<?xml version="1.0" encoding="UTF-8" standalone="no"?>
<svg
   xmlns="http://www.w3.org/2000/svg"
   width="48"
   height="48"
   viewBox="0 0 48 48"
   version="1.1"
   id="svg1050">
  <mask
     id="mask0">
    <path
       id="path1651"
       d="m 39.007419,86.753088 v 95.116152 h 2.140953 c 7.993909,-21.40222 52.545091,-72.97797 66.749488,-80.91946 17.84923,-9.979262 39.79218,17.17953 28.78975,30.52379 -8.111,9.83741 -42.370053,36.09818 -67.895447,50.39567 H 161.95753 V 86.753088 Z"
       style="fill:#ffffff" />
  </mask>
  <g
     id="layer1"
     transform="matrix(3.7992788,0,0,3.7992788,-0.12542048,-1080.2604)">
    <g
       id="g833"
       transform="matrix(0.1098057,0,0,0.1098057,-4.2750087,271.56799)">
      <g
         mask="url(#mask0)"
         id="g930"
         style="display:inline"
         transform="translate(-4.9097583,38.609802)">
        <rect
           rx="9.2809362"
           style="fill:#1a91cf;fill-opacity:1;stroke:none;stroke-width:0.76736903"
           id="rect4765"
           width="29.649868"
           height="88.465126"
           x="85.894119"
           y="89.823242"
           ry="9.2809362" />
        <rect
           rx="9.2809362"
           ry="9.2809362"
           y="114.56075"
           x="44.310932"
           height="62.877209"
           width="30.425028"
           id="rect4767-3"
           style="fill:#f7c94b;fill-opacity:1;stroke:none;stroke-width:0.06749156;stroke-miterlimit:4;stroke-dasharray:none" />
        <rect
           style="fill:#bb1d25;fill-opacity:1;stroke:none;stroke-width:0.77158147"
           id="rect4767"
           width="30.425028"
           height="53.389141"
           x="126.78381"
           y="124.12404"
           ry="9.2809362"
           rx="9.2809362" />
      </g>
      <g
         id="g4909"
         style="display:inline"
         transform="translate(-4.9097583,38.609802)">
        <path
           style="fill:#96be0f;fill-opacity:1;stroke:none;stroke-width:0.24567455px;stroke-linecap:butt;stroke-linejoin:miter;stroke-opacity:1"
           d="m 134.05715,84.948131 c 2.06896,-1.64996 14.31746,-0.533175 14.20963,2.265099 -0.10784,2.798274 -18.072,19.82655 -19.21304,19.10217 -1.14103,-0.72438 2.93446,-19.71731 5.00341,-21.367269 z"
           id="path4819" />
        <path
           style="fill:#eb7800;fill-opacity:1;stroke:none;stroke-width:0.24567455px;stroke-linecap:butt;stroke-linejoin:miter;stroke-opacity:1"
           d="m 45.512338,185.34105 c -5.423141,-7.92428 51.048625,-71.27204 64.119252,-79.3117 13.07064,-8.039658 31.18828,10.76058 22.22936,23.10314 -8.95892,12.34256 -80.925471,64.13284 -86.348612,56.20856 z"
           id="path4817" />
        <path
           style="fill:#96be0f;fill-opacity:1;stroke:none;stroke-width:0.24567455px;stroke-linecap:butt;stroke-linejoin:miter;stroke-opacity:1"
           d="m 132.79957,110.15812 c -0.27733,-2.26935 21.74812,-19.774749 24.5019,-19.967071 2.75378,-0.192321 1.8539,16.601161 -0.14455,17.929951 -1.99845,1.32879 -24.08003,4.30647 -24.35735,2.03712 z"
           id="path4821" />
      </g>
    </g>
  </g>
</svg>
